<?xml version="1.0" encoding="utf-8" standalone="no"?>
<!DOCTYPE svg PUBLIC "-//W3C//DTD SVG 1.1//EN"
  "http://www.w3.org/Graphics/SVG/1.1/DTD/svg11.dtd">
<svg xmlns:xlink="http://www.w3.org/1999/xlink" width="460.8pt" height="345.6pt" viewBox="0 0 460.8 345.6" xmlns="http://www.w3.org/2000/svg" version="1.1">
 <metadata>
  <rdf:RDF xmlns:dc="http://purl.org/dc/elements/1.1/" xmlns:cc="http://creativecommons.org/ns#" xmlns:rdf="http://www.w3.org/1999/02/22-rdf-syntax-ns#">
   <cc:Work>
    <dc:type rdf:resource="http://purl.org/dc/dcmitype/StillImage"/>
    <dc:date>2023-09-26T07:53:36.218762</dc:date>
    <dc:format>image/svg+xml</dc:format>
    <dc:creator>
     <cc:Agent>
      <dc:title>Matplotlib v3.8.0, https://matplotlib.org/</dc:title>
     </cc:Agent>
    </dc:creator>
   </cc:Work>
  </rdf:RDF>
 </metadata>
 <defs>
  <style type="text/css">*{stroke-linejoin: round; stroke-linecap: butt}</style>
 </defs>
 <g id="figure_1">
  <g id="patch_1">
   <path d="M 0 345.6 
L 460.8 345.6 
L 460.8 0 
L 0 0 
z
" style="fill: #ffffff"/>
  </g>
  <g id="axes_1">
   <g id="patch_2">
    <path d="M 57.6 307.584 
L 414.72 307.584 
L 414.72 41.472 
L 57.6 41.472 
z
" style="fill: #ffffff"/>
   </g>
   <g id="matplotlib.axis_1">
    <g id="text_1">
     <!-- Date -->
     <g transform="translate(224.209219 319.182437) scale(0.1 -0.1)">
      <defs>
       <path id="DejaVuSans-44" d="M 1259 4147 
L 1259 519 
L 2022 519 
Q 2988 519 3436 956 
Q 3884 1394 3884 2338 
Q 3884 3275 3436 3711 
Q 2988 4147 2022 4147 
L 1259 4147 
z
M 628 4666 
L 1925 4666 
Q 3281 4666 3915 4102 
Q 4550 3538 4550 2338 
Q 4550 1131 3912 565 
Q 3275 0 1925 0 
L 628 0 
L 628 4666 
z
" transform="scale(0.015625)"/>
       <path id="DejaVuSans-61" d="M 2194 1759 
Q 1497 1759 1228 1600 
Q 959 1441 959 1056 
Q 959 750 1161 570 
Q 1363 391 1709 391 
Q 2188 391 2477 730 
Q 2766 1069 2766 1631 
L 2766 1759 
L 2194 1759 
z
M 3341 1997 
L 3341 0 
L 2766 0 
L 2766 531 
Q 2569 213 2275 61 
Q 1981 -91 1556 -91 
Q 1019 -91 701 211 
Q 384 513 384 1019 
Q 384 1609 779 1909 
Q 1175 2209 1959 2209 
L 2766 2209 
L 2766 2266 
Q 2766 2663 2505 2880 
Q 2244 3097 1772 3097 
Q 1472 3097 1187 3025 
Q 903 2953 641 2809 
L 641 3341 
Q 956 3463 1253 3523 
Q 1550 3584 1831 3584 
Q 2591 3584 2966 3190 
Q 3341 2797 3341 1997 
z
" transform="scale(0.015625)"/>
       <path id="DejaVuSans-74" d="M 1172 4494 
L 1172 3500 
L 2356 3500 
L 2356 3053 
L 1172 3053 
L 1172 1153 
Q 1172 725 1289 603 
Q 1406 481 1766 481 
L 2356 481 
L 2356 0 
L 1766 0 
Q 1100 0 847 248 
Q 594 497 594 1153 
L 594 3053 
L 172 3053 
L 172 3500 
L 594 3500 
L 594 4494 
L 1172 4494 
z
" transform="scale(0.015625)"/>
       <path id="DejaVuSans-65" d="M 3597 1894 
L 3597 1613 
L 953 1613 
Q 991 1019 1311 708 
Q 1631 397 2203 397 
Q 2534 397 2845 478 
Q 3156 559 3463 722 
L 3463 178 
Q 3153 47 2828 -22 
Q 2503 -91 2169 -91 
Q 1331 -91 842 396 
Q 353 884 353 1716 
Q 353 2575 817 3079 
Q 1281 3584 2069 3584 
Q 2775 3584 3186 3129 
Q 3597 2675 3597 1894 
z
M 3022 2063 
Q 3016 2534 2758 2815 
Q 2500 3097 2075 3097 
Q 1594 3097 1305 2825 
Q 1016 2553 972 2059 
L 3022 2063 
z
" transform="scale(0.015625)"/>
      </defs>
      <use xlink:href="#DejaVuSans-44"/>
      <use xlink:href="#DejaVuSans-61" x="77.001953"/>
      <use xlink:href="#DejaVuSans-74" x="138.28125"/>
      <use xlink:href="#DejaVuSans-65" x="177.490234"/>
     </g>
    </g>
   </g>
   <g id="matplotlib.axis_2">
    <g id="ytick_1">
     <g id="line2d_1">
      <defs>
       <path id="m3c2b0d4b24" d="M 0 0 
L -3.5 0 
" style="stroke: #000000; stroke-width: 0.8"/>
      </defs>
      <g>
       <use xlink:href="#m3c2b0d4b24" x="57.6" y="305.842553" style="stroke: #000000; stroke-width: 0.8"/>
      </g>
     </g>
     <g id="text_2">
      <!-- 220 -->
      <g style="fill: #ff0000" transform="translate(31.5125 309.641771) scale(0.1 -0.1)">
       <defs>
        <path id="DejaVuSans-32" d="M 1228 531 
L 3431 531 
L 3431 0 
L 469 0 
L 469 531 
Q 828 903 1448 1529 
Q 2069 2156 2228 2338 
Q 2531 2678 2651 2914 
Q 2772 3150 2772 3378 
Q 2772 3750 2511 3984 
Q 2250 4219 1831 4219 
Q 1534 4219 1204 4116 
Q 875 4013 500 3803 
L 500 4441 
Q 881 4594 1212 4672 
Q 1544 4750 1819 4750 
Q 2544 4750 2975 4387 
Q 3406 4025 3406 3419 
Q 3406 3131 3298 2873 
Q 3191 2616 2906 2266 
Q 2828 2175 2409 1742 
Q 1991 1309 1228 531 
z
" transform="scale(0.015625)"/>
        <path id="DejaVuSans-30" d="M 2034 4250 
Q 1547 4250 1301 3770 
Q 1056 3291 1056 2328 
Q 1056 1369 1301 889 
Q 1547 409 2034 409 
Q 2525 409 2770 889 
Q 3016 1369 3016 2328 
Q 3016 3291 2770 3770 
Q 2525 4250 2034 4250 
z
M 2034 4750 
Q 2819 4750 3233 4129 
Q 3647 3509 3647 2328 
Q 3647 1150 3233 529 
Q 2819 -91 2034 -91 
Q 1250 -91 836 529 
Q 422 1150 422 2328 
Q 422 3509 836 4129 
Q 1250 4750 2034 4750 
z
" transform="scale(0.015625)"/>
       </defs>
       <use xlink:href="#DejaVuSans-32"/>
       <use xlink:href="#DejaVuSans-32" x="63.623047"/>
       <use xlink:href="#DejaVuSans-30" x="127.246094"/>
      </g>
     </g>
    </g>
    <g id="ytick_2">
     <g id="line2d_2">
      <g>
       <use xlink:href="#m3c2b0d4b24" x="57.6" y="258.776405" style="stroke: #000000; stroke-width: 0.8"/>
      </g>
     </g>
     <g id="text_3">
      <!-- 240 -->
      <g style="fill: #ff0000" transform="translate(31.5125 262.575623) scale(0.1 -0.1)">
       <defs>
        <path id="DejaVuSans-34" d="M 2419 4116 
L 825 1625 
L 2419 1625 
L 2419 4116 
z
M 2253 4666 
L 3047 4666 
L 3047 1625 
L 3713 1625 
L 3713 1100 
L 3047 1100 
L 3047 0 
L 2419 0 
L 2419 1100 
L 313 1100 
L 313 1709 
L 2253 4666 
z
" transform="scale(0.015625)"/>
       </defs>
       <use xlink:href="#DejaVuSans-32"/>
       <use xlink:href="#DejaVuSans-34" x="63.623047"/>
       <use xlink:href="#DejaVuSans-30" x="127.246094"/>
      </g>
     </g>
    </g>
    <g id="ytick_3">
     <g id="line2d_3">
      <g>
       <use xlink:href="#m3c2b0d4b24" x="57.6" y="211.710257" style="stroke: #000000; stroke-width: 0.8"/>
      </g>
     </g>
     <g id="text_4">
      <!-- 260 -->
      <g style="fill: #ff0000" transform="translate(31.5125 215.509476) scale(0.1 -0.1)">
       <defs>
        <path id="DejaVuSans-36" d="M 2113 2584 
Q 1688 2584 1439 2293 
Q 1191 2003 1191 1497 
Q 1191 994 1439 701 
Q 1688 409 2113 409 
Q 2538 409 2786 701 
Q 3034 994 3034 1497 
Q 3034 2003 2786 2293 
Q 2538 2584 2113 2584 
z
M 3366 4563 
L 3366 3988 
Q 3128 4100 2886 4159 
Q 2644 4219 2406 4219 
Q 1781 4219 1451 3797 
Q 1122 3375 1075 2522 
Q 1259 2794 1537 2939 
Q 1816 3084 2150 3084 
Q 2853 3084 3261 2657 
Q 3669 2231 3669 1497 
Q 3669 778 3244 343 
Q 2819 -91 2113 -91 
Q 1303 -91 875 529 
Q 447 1150 447 2328 
Q 447 3434 972 4092 
Q 1497 4750 2381 4750 
Q 2619 4750 2861 4703 
Q 3103 4656 3366 4563 
z
" transform="scale(0.015625)"/>
       </defs>
       <use xlink:href="#DejaVuSans-32"/>
       <use xlink:href="#DejaVuSans-36" x="63.623047"/>
       <use xlink:href="#DejaVuSans-30" x="127.246094"/>
      </g>
     </g>
    </g>
    <g id="ytick_4">
     <g id="line2d_4">
      <g>
       <use xlink:href="#m3c2b0d4b24" x="57.6" y="164.644109" style="stroke: #000000; stroke-width: 0.8"/>
      </g>
     </g>
     <g id="text_5">
      <!-- 280 -->
      <g style="fill: #ff0000" transform="translate(31.5125 168.443328) scale(0.1 -0.1)">
       <defs>
        <path id="DejaVuSans-38" d="M 2034 2216 
Q 1584 2216 1326 1975 
Q 1069 1734 1069 1313 
Q 1069 891 1326 650 
Q 1584 409 2034 409 
Q 2484 409 2743 651 
Q 3003 894 3003 1313 
Q 3003 1734 2745 1975 
Q 2488 2216 2034 2216 
z
M 1403 2484 
Q 997 2584 770 2862 
Q 544 3141 544 3541 
Q 544 4100 942 4425 
Q 1341 4750 2034 4750 
Q 2731 4750 3128 4425 
Q 3525 4100 3525 3541 
Q 3525 3141 3298 2862 
Q 3072 2584 2669 2484 
Q 3125 2378 3379 2068 
Q 3634 1759 3634 1313 
Q 3634 634 3220 271 
Q 2806 -91 2034 -91 
Q 1263 -91 848 271 
Q 434 634 434 1313 
Q 434 1759 690 2068 
Q 947 2378 1403 2484 
z
M 1172 3481 
Q 1172 3119 1398 2916 
Q 1625 2713 2034 2713 
Q 2441 2713 2670 2916 
Q 2900 3119 2900 3481 
Q 2900 3844 2670 4047 
Q 2441 4250 2034 4250 
Q 1625 4250 1398 4047 
Q 1172 3844 1172 3481 
z
" transform="scale(0.015625)"/>
       </defs>
       <use xlink:href="#DejaVuSans-32"/>
       <use xlink:href="#DejaVuSans-38" x="63.623047"/>
       <use xlink:href="#DejaVuSans-30" x="127.246094"/>
      </g>
     </g>
    </g>
    <g id="ytick_5">
     <g id="line2d_5">
      <g>
       <use xlink:href="#m3c2b0d4b24" x="57.6" y="117.577961" style="stroke: #000000; stroke-width: 0.8"/>
      </g>
     </g>
     <g id="text_6">
      <!-- 300 -->
      <g style="fill: #ff0000" transform="translate(31.5125 121.37718) scale(0.1 -0.1)">
       <defs>
        <path id="DejaVuSans-33" d="M 2597 2516 
Q 3050 2419 3304 2112 
Q 3559 1806 3559 1356 
Q 3559 666 3084 287 
Q 2609 -91 1734 -91 
Q 1441 -91 1130 -33 
Q 819 25 488 141 
L 488 750 
Q 750 597 1062 519 
Q 1375 441 1716 441 
Q 2309 441 2620 675 
Q 2931 909 2931 1356 
Q 2931 1769 2642 2001 
Q 2353 2234 1838 2234 
L 1294 2234 
L 1294 2753 
L 1863 2753 
Q 2328 2753 2575 2939 
Q 2822 3125 2822 3475 
Q 2822 3834 2567 4026 
Q 2313 4219 1838 4219 
Q 1578 4219 1281 4162 
Q 984 4106 628 3988 
L 628 4550 
Q 988 4650 1302 4700 
Q 1616 4750 1894 4750 
Q 2613 4750 3031 4423 
Q 3450 4097 3450 3541 
Q 3450 3153 3228 2886 
Q 3006 2619 2597 2516 
z
" transform="scale(0.015625)"/>
       </defs>
       <use xlink:href="#DejaVuSans-33"/>
       <use xlink:href="#DejaVuSans-30" x="63.623047"/>
       <use xlink:href="#DejaVuSans-30" x="127.246094"/>
      </g>
     </g>
    </g>
    <g id="ytick_6">
     <g id="line2d_6">
      <g>
       <use xlink:href="#m3c2b0d4b24" x="57.6" y="70.511813" style="stroke: #000000; stroke-width: 0.8"/>
      </g>
     </g>
     <g id="text_7">
      <!-- 320 -->
      <g style="fill: #ff0000" transform="translate(31.5125 74.311032) scale(0.1 -0.1)">
       <use xlink:href="#DejaVuSans-33"/>
       <use xlink:href="#DejaVuSans-32" x="63.623047"/>
       <use xlink:href="#DejaVuSans-30" x="127.246094"/>
      </g>
     </g>
    </g>
    <g id="text_8">
     <!-- Avg -->
     <g style="fill: #ff0000" transform="translate(25.432812 183.788156) rotate(-90) scale(0.1 -0.1)">
      <defs>
       <path id="DejaVuSans-41" d="M 2188 4044 
L 1331 1722 
L 3047 1722 
L 2188 4044 
z
M 1831 4666 
L 2547 4666 
L 4325 0 
L 3669 0 
L 3244 1197 
L 1141 1197 
L 716 0 
L 50 0 
L 1831 4666 
z
" transform="scale(0.015625)"/>
       <path id="DejaVuSans-76" d="M 191 3500 
L 800 3500 
L 1894 563 
L 2988 3500 
L 3597 3500 
L 2284 0 
L 1503 0 
L 191 3500 
z
" transform="scale(0.015625)"/>
       <path id="DejaVuSans-67" d="M 2906 1791 
Q 2906 2416 2648 2759 
Q 2391 3103 1925 3103 
Q 1463 3103 1205 2759 
Q 947 2416 947 1791 
Q 947 1169 1205 825 
Q 1463 481 1925 481 
Q 2391 481 2648 825 
Q 2906 1169 2906 1791 
z
M 3481 434 
Q 3481 -459 3084 -895 
Q 2688 -1331 1869 -1331 
Q 1566 -1331 1297 -1286 
Q 1028 -1241 775 -1147 
L 775 -588 
Q 1028 -725 1275 -790 
Q 1522 -856 1778 -856 
Q 2344 -856 2625 -561 
Q 2906 -266 2906 331 
L 2906 616 
Q 2728 306 2450 153 
Q 2172 0 1784 0 
Q 1141 0 747 490 
Q 353 981 353 1791 
Q 353 2603 747 3093 
Q 1141 3584 1784 3584 
Q 2172 3584 2450 3431 
Q 2728 3278 2906 2969 
L 2906 3500 
L 3481 3500 
L 3481 434 
z
" transform="scale(0.015625)"/>
      </defs>
      <use xlink:href="#DejaVuSans-41"/>
      <use xlink:href="#DejaVuSans-76" x="62.533203"/>
      <use xlink:href="#DejaVuSans-67" x="121.712891"/>
     </g>
    </g>
   </g>
   <g id="line2d_7">
    <path d="M 74.729563 289.228202 
L 76.971652 295.488 
L 79.213742 289.298802 
L 81.455831 282.097681 
L 83.697921 267.69544 
L 90.424189 268.495564 
L 92.666278 269.789883 
L 94.908368 272.025525 
L 97.150457 269.884016 
L 99.392546 267.224778 
L 106.118815 257.576218 
L 108.360904 258.870537 
L 110.602993 251.292887 
L 112.845083 250.351564 
L 115.087172 243.291642 
L 121.81344 237.478973 
L 124.05553 251.034023 
L 126.297619 251.104623 
L 128.539709 238.161432 
L 130.781798 221.547082 
L 137.508066 217.593525 
L 139.750156 218.464249 
L 141.992245 218.205385 
L 144.234335 213.051642 
L 146.476424 211.380794 
L 153.202692 206.532981 
L 155.444782 207.097774 
L 157.686871 201.190973 
L 159.92896 205.497525 
L 162.17105 198.155206 
L 168.897318 195.001774 
L 171.139407 196.907953 
L 173.381497 204.203206 
L 175.623586 206.980109 
L 177.865676 207.52137 
L 184.591944 196.719689 
L 186.834033 201.614568 
L 189.076123 193.260327 
L 193.560301 194.648778 
L 200.28657 201.920498 
L 202.528659 213.004576 
L 204.770748 207.615502 
L 207.012838 198.578802 
L 209.254927 186.506335 
L 215.981195 195.42537 
L 218.223285 191.75421 
L 220.465374 186.365136 
L 222.707464 184.741354 
L 224.949553 176.05765 
L 231.675821 164.973572 
L 233.917911 163.679253 
L 236.16 165.255969 
L 238.402089 164.597043 
L 240.644179 165.961961 
L 247.370447 155.230879 
L 249.612536 154.595486 
L 254.096715 141.322833 
L 256.338805 141.581696 
L 263.065073 137.534008 
L 265.307162 132.521463 
L 269.791341 116.754304 
L 272.03343 123.625961 
L 278.759699 118.048623 
L 281.001788 121.366786 
L 283.243877 110.070911 
L 285.485967 94.915611 
L 287.728056 93.268296 
L 294.454324 77.665868 
L 296.696414 87.738023 
L 298.938503 90.891455 
L 301.180593 81.713556 
L 303.422682 73.500514 
L 312.39104 78.583658 
L 314.633129 75.92442 
L 316.875218 72.32386 
L 319.117308 74.488903 
L 325.843576 96.51586 
L 328.085665 75.947953 
L 330.327755 60.298459 
L 332.569844 61.404514 
L 334.811934 95.198008 
L 341.538202 97.198319 
L 343.780291 73.218117 
L 346.022381 67.099518 
L 348.26447 58.251082 
L 350.50656 70.441214 
L 357.232828 66.864187 
L 359.474917 71.429603 
L 361.717007 53.568 
L 363.959096 59.051206 
L 366.201185 58.862942 
L 375.169543 72.865121 
L 377.411632 61.99284 
L 379.653722 69.805821 
L 381.895811 86.8673 
L 388.622079 121.860981 
L 390.864169 145.629385 
L 393.106258 134.87477 
L 395.348348 179.893541 
L 397.590437 180.27007 
" clip-path="url(#pbbc30916c4)" style="fill: none; stroke: #ff0000; stroke-width: 1.5; stroke-linecap: square"/>
   </g>
   <g id="patch_3">
    <path d="M 57.6 307.584 
L 57.6 41.472 
" style="fill: none; stroke: #000000; stroke-width: 0.8; stroke-linejoin: miter; stroke-linecap: square"/>
   </g>
   <g id="patch_4">
    <path d="M 414.72 307.584 
L 414.72 41.472 
" style="fill: none; stroke: #000000; stroke-width: 0.8; stroke-linejoin: miter; stroke-linecap: square"/>
   </g>
   <g id="patch_5">
    <path d="M 57.6 307.584 
L 414.72 307.584 
" style="fill: none; stroke: #000000; stroke-width: 0.8; stroke-linejoin: miter; stroke-linecap: square"/>
   </g>
   <g id="patch_6">
    <path d="M 57.6 41.472 
L 414.72 41.472 
" style="fill: none; stroke: #000000; stroke-width: 0.8; stroke-linejoin: miter; stroke-linecap: square"/>
   </g>
   <g id="text_9">
    <!-- AMZN Stock Price -->
    <g transform="translate(183.223125 35.472) scale(0.12 -0.12)">
     <defs>
      <path id="DejaVuSans-4d" d="M 628 4666 
L 1569 4666 
L 2759 1491 
L 3956 4666 
L 4897 4666 
L 4897 0 
L 4281 0 
L 4281 4097 
L 3078 897 
L 2444 897 
L 1241 4097 
L 1241 0 
L 628 0 
L 628 4666 
z
" transform="scale(0.015625)"/>
      <path id="DejaVuSans-5a" d="M 359 4666 
L 4025 4666 
L 4025 4184 
L 1075 531 
L 4097 531 
L 4097 0 
L 288 0 
L 288 481 
L 3238 4134 
L 359 4134 
L 359 4666 
z
" transform="scale(0.015625)"/>
      <path id="DejaVuSans-4e" d="M 628 4666 
L 1478 4666 
L 3547 763 
L 3547 4666 
L 4159 4666 
L 4159 0 
L 3309 0 
L 1241 3903 
L 1241 0 
L 628 0 
L 628 4666 
z
" transform="scale(0.015625)"/>
      <path id="DejaVuSans-20" transform="scale(0.015625)"/>
      <path id="DejaVuSans-53" d="M 3425 4513 
L 3425 3897 
Q 3066 4069 2747 4153 
Q 2428 4238 2131 4238 
Q 1616 4238 1336 4038 
Q 1056 3838 1056 3469 
Q 1056 3159 1242 3001 
Q 1428 2844 1947 2747 
L 2328 2669 
Q 3034 2534 3370 2195 
Q 3706 1856 3706 1288 
Q 3706 609 3251 259 
Q 2797 -91 1919 -91 
Q 1588 -91 1214 -16 
Q 841 59 441 206 
L 441 856 
Q 825 641 1194 531 
Q 1563 422 1919 422 
Q 2459 422 2753 634 
Q 3047 847 3047 1241 
Q 3047 1584 2836 1778 
Q 2625 1972 2144 2069 
L 1759 2144 
Q 1053 2284 737 2584 
Q 422 2884 422 3419 
Q 422 4038 858 4394 
Q 1294 4750 2059 4750 
Q 2388 4750 2728 4690 
Q 3069 4631 3425 4513 
z
" transform="scale(0.015625)"/>
      <path id="DejaVuSans-6f" d="M 1959 3097 
Q 1497 3097 1228 2736 
Q 959 2375 959 1747 
Q 959 1119 1226 758 
Q 1494 397 1959 397 
Q 2419 397 2687 759 
Q 2956 1122 2956 1747 
Q 2956 2369 2687 2733 
Q 2419 3097 1959 3097 
z
M 1959 3584 
Q 2709 3584 3137 3096 
Q 3566 2609 3566 1747 
Q 3566 888 3137 398 
Q 2709 -91 1959 -91 
Q 1206 -91 779 398 
Q 353 888 353 1747 
Q 353 2609 779 3096 
Q 1206 3584 1959 3584 
z
" transform="scale(0.015625)"/>
      <path id="DejaVuSans-63" d="M 3122 3366 
L 3122 2828 
Q 2878 2963 2633 3030 
Q 2388 3097 2138 3097 
Q 1578 3097 1268 2742 
Q 959 2388 959 1747 
Q 959 1106 1268 751 
Q 1578 397 2138 397 
Q 2388 397 2633 464 
Q 2878 531 3122 666 
L 3122 134 
Q 2881 22 2623 -34 
Q 2366 -91 2075 -91 
Q 1284 -91 818 406 
Q 353 903 353 1747 
Q 353 2603 823 3093 
Q 1294 3584 2113 3584 
Q 2378 3584 2631 3529 
Q 2884 3475 3122 3366 
z
" transform="scale(0.015625)"/>
      <path id="DejaVuSans-6b" d="M 581 4863 
L 1159 4863 
L 1159 1991 
L 2875 3500 
L 3609 3500 
L 1753 1863 
L 3688 0 
L 2938 0 
L 1159 1709 
L 1159 0 
L 581 0 
L 581 4863 
z
" transform="scale(0.015625)"/>
      <path id="DejaVuSans-50" d="M 1259 4147 
L 1259 2394 
L 2053 2394 
Q 2494 2394 2734 2622 
Q 2975 2850 2975 3272 
Q 2975 3691 2734 3919 
Q 2494 4147 2053 4147 
L 1259 4147 
z
M 628 4666 
L 2053 4666 
Q 2838 4666 3239 4311 
Q 3641 3956 3641 3272 
Q 3641 2581 3239 2228 
Q 2838 1875 2053 1875 
L 1259 1875 
L 1259 0 
L 628 0 
L 628 4666 
z
" transform="scale(0.015625)"/>
      <path id="DejaVuSans-72" d="M 2631 2963 
Q 2534 3019 2420 3045 
Q 2306 3072 2169 3072 
Q 1681 3072 1420 2755 
Q 1159 2438 1159 1844 
L 1159 0 
L 581 0 
L 581 3500 
L 1159 3500 
L 1159 2956 
Q 1341 3275 1631 3429 
Q 1922 3584 2338 3584 
Q 2397 3584 2469 3576 
Q 2541 3569 2628 3553 
L 2631 2963 
z
" transform="scale(0.015625)"/>
      <path id="DejaVuSans-69" d="M 603 3500 
L 1178 3500 
L 1178 0 
L 603 0 
L 603 3500 
z
M 603 4863 
L 1178 4863 
L 1178 4134 
L 603 4134 
L 603 4863 
z
" transform="scale(0.015625)"/>
     </defs>
     <use xlink:href="#DejaVuSans-41"/>
     <use xlink:href="#DejaVuSans-4d" x="68.408203"/>
     <use xlink:href="#DejaVuSans-5a" x="154.6875"/>
     <use xlink:href="#DejaVuSans-4e" x="223.193359"/>
     <use xlink:href="#DejaVuSans-20" x="297.998047"/>
     <use xlink:href="#DejaVuSans-53" x="329.785156"/>
     <use xlink:href="#DejaVuSans-74" x="393.261719"/>
     <use xlink:href="#DejaVuSans-6f" x="432.470703"/>
     <use xlink:href="#DejaVuSans-63" x="493.652344"/>
     <use xlink:href="#DejaVuSans-6b" x="548.632812"/>
     <use xlink:href="#DejaVuSans-20" x="606.542969"/>
     <use xlink:href="#DejaVuSans-50" x="638.330078"/>
     <use xlink:href="#DejaVuSans-72" x="696.882812"/>
     <use xlink:href="#DejaVuSans-69" x="737.996094"/>
     <use xlink:href="#DejaVuSans-63" x="765.779297"/>
     <use xlink:href="#DejaVuSans-65" x="820.759766"/>
    </g>
   </g>
  </g>
  <g id="axes_2">
   <g id="patch_7">
    <path d="M 73.832727 307.584 
L 75.626399 307.584 
L 75.626399 234.228597 
L 73.832727 234.228597 
z
" clip-path="url(#pbbc30916c4)" style="fill: #4c4c4c; fill-opacity: 0.3"/>
   </g>
   <g id="patch_8">
    <path d="M 76.074817 307.584 
L 77.868488 307.584 
L 77.868488 238.043857 
L 76.074817 238.043857 
z
" clip-path="url(#pbbc30916c4)" style="fill: #4c4c4c; fill-opacity: 0.3"/>
   </g>
   <g id="patch_9">
    <path d="M 78.316906 307.584 
L 80.110578 307.584 
L 80.110578 262.393202 
L 78.316906 262.393202 
z
" clip-path="url(#pbbc30916c4)" style="fill: #4c4c4c; fill-opacity: 0.3"/>
   </g>
   <g id="patch_10">
    <path d="M 80.558995 307.584 
L 82.352667 307.584 
L 82.352667 238.803124 
L 80.558995 238.803124 
z
" clip-path="url(#pbbc30916c4)" style="fill: #4c4c4c; fill-opacity: 0.3"/>
   </g>
   <g id="patch_11">
    <path d="M 82.801085 307.584 
L 84.594756 307.584 
L 84.594756 207.866242 
L 82.801085 207.866242 
z
" clip-path="url(#pbbc30916c4)" style="fill: #4c4c4c; fill-opacity: 0.3"/>
   </g>
   <g id="patch_12">
    <path d="M 89.527353 307.584 
L 91.321025 307.584 
L 91.321025 249.607212 
L 89.527353 249.607212 
z
" clip-path="url(#pbbc30916c4)" style="fill: #4c4c4c; fill-opacity: 0.3"/>
   </g>
   <g id="patch_13">
    <path d="M 91.769442 307.584 
L 93.563114 307.584 
L 93.563114 252.867793 
L 91.769442 252.867793 
z
" clip-path="url(#pbbc30916c4)" style="fill: #4c4c4c; fill-opacity: 0.3"/>
   </g>
   <g id="patch_14">
    <path d="M 94.011532 307.584 
L 95.805203 307.584 
L 95.805203 261.782241 
L 94.011532 261.782241 
z
" clip-path="url(#pbbc30916c4)" style="fill: #4c4c4c; fill-opacity: 0.3"/>
   </g>
   <g id="patch_15">
    <path d="M 96.253621 307.584 
L 98.047293 307.584 
L 98.047293 266.564561 
L 96.253621 266.564561 
z
" clip-path="url(#pbbc30916c4)" style="fill: #4c4c4c; fill-opacity: 0.3"/>
   </g>
   <g id="patch_16">
    <path d="M 98.495711 307.584 
L 100.289382 307.584 
L 100.289382 249.693441 
L 98.495711 249.693441 
z
" clip-path="url(#pbbc30916c4)" style="fill: #4c4c4c; fill-opacity: 0.3"/>
   </g>
   <g id="patch_17">
    <path d="M 105.221979 307.584 
L 107.01565 307.584 
L 107.01565 254.466024 
L 105.221979 254.466024 
z
" clip-path="url(#pbbc30916c4)" style="fill: #4c4c4c; fill-opacity: 0.3"/>
   </g>
   <g id="patch_18">
    <path d="M 107.464068 307.584 
L 109.25774 307.584 
L 109.25774 253.714357 
L 107.464068 253.714357 
z
" clip-path="url(#pbbc30916c4)" style="fill: #4c4c4c; fill-opacity: 0.3"/>
   </g>
   <g id="patch_19">
    <path d="M 109.706158 307.584 
L 111.499829 307.584 
L 111.499829 260.248461 
L 109.706158 260.248461 
z
" clip-path="url(#pbbc30916c4)" style="fill: #4c4c4c; fill-opacity: 0.3"/>
   </g>
   <g id="patch_20">
    <path d="M 111.948247 307.584 
L 113.741919 307.584 
L 113.741919 265.036719 
L 111.948247 265.036719 
z
" clip-path="url(#pbbc30916c4)" style="fill: #4c4c4c; fill-opacity: 0.3"/>
   </g>
   <g id="patch_21">
    <path d="M 114.190337 307.584 
L 115.984008 307.584 
L 115.984008 263.960846 
L 114.190337 263.960846 
z
" clip-path="url(#pbbc30916c4)" style="fill: #4c4c4c; fill-opacity: 0.3"/>
   </g>
   <g id="patch_22">
    <path d="M 120.916605 307.584 
L 122.710276 307.584 
L 122.710276 250.248974 
L 120.916605 250.248974 
z
" clip-path="url(#pbbc30916c4)" style="fill: #4c4c4c; fill-opacity: 0.3"/>
   </g>
   <g id="patch_23">
    <path d="M 123.158694 307.584 
L 124.952366 307.584 
L 124.952366 222.780705 
L 123.158694 222.780705 
z
" clip-path="url(#pbbc30916c4)" style="fill: #4c4c4c; fill-opacity: 0.3"/>
   </g>
   <g id="patch_24">
    <path d="M 125.400784 307.584 
L 127.194455 307.584 
L 127.194455 233.65568 
L 125.400784 233.65568 
z
" clip-path="url(#pbbc30916c4)" style="fill: #4c4c4c; fill-opacity: 0.3"/>
   </g>
   <g id="patch_25">
    <path d="M 127.642873 307.584 
L 129.436544 307.584 
L 129.436544 224.963964 
L 127.642873 224.963964 
z
" clip-path="url(#pbbc30916c4)" style="fill: #4c4c4c; fill-opacity: 0.3"/>
   </g>
   <g id="patch_26">
    <path d="M 129.884962 307.584 
L 131.678634 307.584 
L 131.678634 217.861431 
L 129.884962 217.861431 
z
" clip-path="url(#pbbc30916c4)" style="fill: #4c4c4c; fill-opacity: 0.3"/>
   </g>
   <g id="patch_27">
    <path d="M 136.611231 307.584 
L 138.404902 307.584 
L 138.404902 246.271897 
L 136.611231 246.271897 
z
" clip-path="url(#pbbc30916c4)" style="fill: #4c4c4c; fill-opacity: 0.3"/>
   </g>
   <g id="patch_28">
    <path d="M 138.85332 307.584 
L 140.646991 307.584 
L 140.646991 260.149005 
L 138.85332 260.149005 
z
" clip-path="url(#pbbc30916c4)" style="fill: #4c4c4c; fill-opacity: 0.3"/>
   </g>
   <g id="patch_29">
    <path d="M 141.095409 307.584 
L 142.889081 307.584 
L 142.889081 262.543526 
L 141.095409 262.543526 
z
" clip-path="url(#pbbc30916c4)" style="fill: #4c4c4c; fill-opacity: 0.3"/>
   </g>
   <g id="patch_30">
    <path d="M 143.337499 307.584 
L 145.13117 307.584 
L 145.13117 251.218267 
L 143.337499 251.218267 
z
" clip-path="url(#pbbc30916c4)" style="fill: #4c4c4c; fill-opacity: 0.3"/>
   </g>
   <g id="patch_31">
    <path d="M 145.579588 307.584 
L 147.37326 307.584 
L 147.37326 265.976564 
L 145.579588 265.976564 
z
" clip-path="url(#pbbc30916c4)" style="fill: #4c4c4c; fill-opacity: 0.3"/>
   </g>
   <g id="patch_32">
    <path d="M 152.305856 307.584 
L 154.099528 307.584 
L 154.099528 258.883173 
L 152.305856 258.883173 
z
" clip-path="url(#pbbc30916c4)" style="fill: #4c4c4c; fill-opacity: 0.3"/>
   </g>
   <g id="patch_33">
    <path d="M 154.547946 307.584 
L 156.341617 307.584 
L 156.341617 255.701506 
L 154.547946 255.701506 
z
" clip-path="url(#pbbc30916c4)" style="fill: #4c4c4c; fill-opacity: 0.3"/>
   </g>
   <g id="patch_34">
    <path d="M 156.790035 307.584 
L 158.583707 307.584 
L 158.583707 246.272752 
L 156.790035 246.272752 
z
" clip-path="url(#pbbc30916c4)" style="fill: #4c4c4c; fill-opacity: 0.3"/>
   </g>
   <g id="patch_35">
    <path d="M 159.032125 307.584 
L 160.825796 307.584 
L 160.825796 254.39934 
L 159.032125 254.39934 
z
" clip-path="url(#pbbc30916c4)" style="fill: #4c4c4c; fill-opacity: 0.3"/>
   </g>
   <g id="patch_36">
    <path d="M 161.274214 307.584 
L 163.067885 307.584 
L 163.067885 247.991907 
L 161.274214 247.991907 
z
" clip-path="url(#pbbc30916c4)" style="fill: #4c4c4c; fill-opacity: 0.3"/>
   </g>
   <g id="patch_37">
    <path d="M 168.000482 307.584 
L 169.794154 307.584 
L 169.794154 256.049009 
L 168.000482 256.049009 
z
" clip-path="url(#pbbc30916c4)" style="fill: #4c4c4c; fill-opacity: 0.3"/>
   </g>
   <g id="patch_38">
    <path d="M 170.242572 307.584 
L 172.036243 307.584 
L 172.036243 262.297783 
L 170.242572 262.297783 
z
" clip-path="url(#pbbc30916c4)" style="fill: #4c4c4c; fill-opacity: 0.3"/>
   </g>
   <g id="patch_39">
    <path d="M 172.484661 307.584 
L 174.278332 307.584 
L 174.278332 244.391137 
L 172.484661 244.391137 
z
" clip-path="url(#pbbc30916c4)" style="fill: #4c4c4c; fill-opacity: 0.3"/>
   </g>
   <g id="patch_40">
    <path d="M 174.72675 307.584 
L 176.520422 307.584 
L 176.520422 235.512145 
L 174.72675 235.512145 
z
" clip-path="url(#pbbc30916c4)" style="fill: #4c4c4c; fill-opacity: 0.3"/>
   </g>
   <g id="patch_41">
    <path d="M 176.96884 307.584 
L 178.762511 307.584 
L 178.762511 268.800754 
L 176.96884 268.800754 
z
" clip-path="url(#pbbc30916c4)" style="fill: #4c4c4c; fill-opacity: 0.3"/>
   </g>
   <g id="patch_42">
    <path d="M 183.695108 307.584 
L 185.48878 307.584 
L 185.48878 257.643393 
L 183.695108 257.643393 
z
" clip-path="url(#pbbc30916c4)" style="fill: #4c4c4c; fill-opacity: 0.3"/>
   </g>
   <g id="patch_43">
    <path d="M 185.937197 307.584 
L 187.730869 307.584 
L 187.730869 245.044299 
L 185.937197 245.044299 
z
" clip-path="url(#pbbc30916c4)" style="fill: #4c4c4c; fill-opacity: 0.3"/>
   </g>
   <g id="patch_44">
    <path d="M 188.179287 307.584 
L 189.972958 307.584 
L 189.972958 268.670473 
L 188.179287 268.670473 
z
" clip-path="url(#pbbc30916c4)" style="fill: #4c4c4c; fill-opacity: 0.3"/>
   </g>
   <g id="patch_45">
    <path d="M 192.663466 307.584 
L 194.457137 307.584 
L 194.457137 279.90739 
L 192.663466 279.90739 
z
" clip-path="url(#pbbc30916c4)" style="fill: #4c4c4c; fill-opacity: 0.3"/>
   </g>
   <g id="patch_46">
    <path d="M 199.389734 307.584 
L 201.183405 307.584 
L 201.183405 251.316892 
L 199.389734 251.316892 
z
" clip-path="url(#pbbc30916c4)" style="fill: #4c4c4c; fill-opacity: 0.3"/>
   </g>
   <g id="patch_47">
    <path d="M 201.631823 307.584 
L 203.425495 307.584 
L 203.425495 237.819274 
L 201.631823 237.819274 
z
" clip-path="url(#pbbc30916c4)" style="fill: #4c4c4c; fill-opacity: 0.3"/>
   </g>
   <g id="patch_48">
    <path d="M 203.873913 307.584 
L 205.667584 307.584 
L 205.667584 267.662923 
L 203.873913 267.662923 
z
" clip-path="url(#pbbc30916c4)" style="fill: #4c4c4c; fill-opacity: 0.3"/>
   </g>
   <g id="patch_49">
    <path d="M 206.116002 307.584 
L 207.909674 307.584 
L 207.909674 263.267313 
L 206.116002 263.267313 
z
" clip-path="url(#pbbc30916c4)" style="fill: #4c4c4c; fill-opacity: 0.3"/>
   </g>
   <g id="patch_50">
    <path d="M 208.358091 307.584 
L 210.151763 307.584 
L 210.151763 244.539395 
L 208.358091 244.539395 
z
" clip-path="url(#pbbc30916c4)" style="fill: #4c4c4c; fill-opacity: 0.3"/>
   </g>
   <g id="patch_51">
    <path d="M 215.08436 307.584 
L 216.878031 307.584 
L 216.878031 231.157097 
L 215.08436 231.157097 
z
" clip-path="url(#pbbc30916c4)" style="fill: #4c4c4c; fill-opacity: 0.3"/>
   </g>
   <g id="patch_52">
    <path d="M 217.326449 307.584 
L 219.120121 307.584 
L 219.120121 253.836943 
L 217.326449 253.836943 
z
" clip-path="url(#pbbc30916c4)" style="fill: #4c4c4c; fill-opacity: 0.3"/>
   </g>
   <g id="patch_53">
    <path d="M 219.568538 307.584 
L 221.36221 307.584 
L 221.36221 260.745172 
L 219.568538 260.745172 
z
" clip-path="url(#pbbc30916c4)" style="fill: #4c4c4c; fill-opacity: 0.3"/>
   </g>
   <g id="patch_54">
    <path d="M 221.810628 307.584 
L 223.604299 307.584 
L 223.604299 225.803403 
L 221.810628 225.803403 
z
" clip-path="url(#pbbc30916c4)" style="fill: #4c4c4c; fill-opacity: 0.3"/>
   </g>
   <g id="patch_55">
    <path d="M 224.052717 307.584 
L 225.846389 307.584 
L 225.846389 228.188235 
L 224.052717 228.188235 
z
" clip-path="url(#pbbc30916c4)" style="fill: #4c4c4c; fill-opacity: 0.3"/>
   </g>
   <g id="patch_56">
    <path d="M 230.778985 307.584 
L 232.572657 307.584 
L 232.572657 231.398233 
L 230.778985 231.398233 
z
" clip-path="url(#pbbc30916c4)" style="fill: #4c4c4c; fill-opacity: 0.3"/>
   </g>
   <g id="patch_57">
    <path d="M 233.021075 307.584 
L 234.814746 307.584 
L 234.814746 239.722593 
L 233.021075 239.722593 
z
" clip-path="url(#pbbc30916c4)" style="fill: #4c4c4c; fill-opacity: 0.3"/>
   </g>
   <g id="patch_58">
    <path d="M 235.263164 307.584 
L 237.056836 307.584 
L 237.056836 238.656576 
L 235.263164 238.656576 
z
" clip-path="url(#pbbc30916c4)" style="fill: #4c4c4c; fill-opacity: 0.3"/>
   </g>
   <g id="patch_59">
    <path d="M 237.505254 307.584 
L 239.298925 307.584 
L 239.298925 249.100267 
L 237.505254 249.100267 
z
" clip-path="url(#pbbc30916c4)" style="fill: #4c4c4c; fill-opacity: 0.3"/>
   </g>
   <g id="patch_60">
    <path d="M 239.747343 307.584 
L 241.541015 307.584 
L 241.541015 143.646023 
L 239.747343 143.646023 
z
" clip-path="url(#pbbc30916c4)" style="fill: #4c4c4c; fill-opacity: 0.3"/>
   </g>
   <g id="patch_61">
    <path d="M 246.473611 307.584 
L 248.267283 307.584 
L 248.267283 248.979319 
L 246.473611 248.979319 
z
" clip-path="url(#pbbc30916c4)" style="fill: #4c4c4c; fill-opacity: 0.3"/>
   </g>
   <g id="patch_62">
    <path d="M 248.715701 307.584 
L 250.509372 307.584 
L 250.509372 278.802284 
L 248.715701 278.802284 
z
" clip-path="url(#pbbc30916c4)" style="fill: #4c4c4c; fill-opacity: 0.3"/>
   </g>
   <g id="patch_63">
    <path d="M 253.199879 307.584 
L 254.993551 307.584 
L 254.993551 252.170746 
L 253.199879 252.170746 
z
" clip-path="url(#pbbc30916c4)" style="fill: #4c4c4c; fill-opacity: 0.3"/>
   </g>
   <g id="patch_64">
    <path d="M 255.441969 307.584 
L 257.23564 307.584 
L 257.23564 220.683602 
L 255.441969 220.683602 
z
" clip-path="url(#pbbc30916c4)" style="fill: #4c4c4c; fill-opacity: 0.3"/>
   </g>
   <g id="patch_65">
    <path d="M 262.168237 307.584 
L 263.961909 307.584 
L 263.961909 221.950147 
L 262.168237 221.950147 
z
" clip-path="url(#pbbc30916c4)" style="fill: #4c4c4c; fill-opacity: 0.3"/>
   </g>
   <g id="patch_66">
    <path d="M 264.410326 307.584 
L 266.203998 307.584 
L 266.203998 247.626285 
L 264.410326 247.626285 
z
" clip-path="url(#pbbc30916c4)" style="fill: #4c4c4c; fill-opacity: 0.3"/>
   </g>
   <g id="patch_67">
    <path d="M 268.894505 307.584 
L 270.688177 307.584 
L 270.688177 227.050593 
L 268.894505 227.050593 
z
" clip-path="url(#pbbc30916c4)" style="fill: #4c4c4c; fill-opacity: 0.3"/>
   </g>
   <g id="patch_68">
    <path d="M 271.136595 307.584 
L 272.930266 307.584 
L 272.930266 220.586379 
L 271.136595 220.586379 
z
" clip-path="url(#pbbc30916c4)" style="fill: #4c4c4c; fill-opacity: 0.3"/>
   </g>
   <g id="patch_69">
    <path d="M 277.862863 307.584 
L 279.656534 307.584 
L 279.656534 237.184327 
L 277.862863 237.184327 
z
" clip-path="url(#pbbc30916c4)" style="fill: #4c4c4c; fill-opacity: 0.3"/>
   </g>
   <g id="patch_70">
    <path d="M 280.104952 307.584 
L 281.898624 307.584 
L 281.898624 241.380526 
L 280.104952 241.380526 
z
" clip-path="url(#pbbc30916c4)" style="fill: #4c4c4c; fill-opacity: 0.3"/>
   </g>
   <g id="patch_71">
    <path d="M 282.347042 307.584 
L 284.140713 307.584 
L 284.140713 229.000079 
L 282.347042 229.000079 
z
" clip-path="url(#pbbc30916c4)" style="fill: #4c4c4c; fill-opacity: 0.3"/>
   </g>
   <g id="patch_72">
    <path d="M 284.589131 307.584 
L 286.382803 307.584 
L 286.382803 206.366968 
L 284.589131 206.366968 
z
" clip-path="url(#pbbc30916c4)" style="fill: #4c4c4c; fill-opacity: 0.3"/>
   </g>
   <g id="patch_73">
    <path d="M 286.83122 307.584 
L 288.624892 307.584 
L 288.624892 223.950524 
L 286.83122 223.950524 
z
" clip-path="url(#pbbc30916c4)" style="fill: #4c4c4c; fill-opacity: 0.3"/>
   </g>
   <g id="patch_74">
    <path d="M 293.557489 307.584 
L 295.35116 307.584 
L 295.35116 235.10145 
L 293.557489 235.10145 
z
" clip-path="url(#pbbc30916c4)" style="fill: #4c4c4c; fill-opacity: 0.3"/>
   </g>
   <g id="patch_75">
    <path d="M 295.799578 307.584 
L 297.59325 307.584 
L 297.59325 211.040737 
L 295.799578 211.040737 
z
" clip-path="url(#pbbc30916c4)" style="fill: #4c4c4c; fill-opacity: 0.3"/>
   </g>
   <g id="patch_76">
    <path d="M 298.041668 307.584 
L 299.835339 307.584 
L 299.835339 235.198436 
L 298.041668 235.198436 
z
" clip-path="url(#pbbc30916c4)" style="fill: #4c4c4c; fill-opacity: 0.3"/>
   </g>
   <g id="patch_77">
    <path d="M 300.283757 307.584 
L 302.077428 307.584 
L 302.077428 242.972607 
L 300.283757 242.972607 
z
" clip-path="url(#pbbc30916c4)" style="fill: #4c4c4c; fill-opacity: 0.3"/>
   </g>
   <g id="patch_78">
    <path d="M 302.525846 307.584 
L 304.319518 307.584 
L 304.319518 225.762842 
L 302.525846 225.762842 
z
" clip-path="url(#pbbc30916c4)" style="fill: #4c4c4c; fill-opacity: 0.3"/>
   </g>
   <g id="patch_79">
    <path d="M 311.494204 307.584 
L 313.287875 307.584 
L 313.287875 241.776759 
L 311.494204 241.776759 
z
" clip-path="url(#pbbc30916c4)" style="fill: #4c4c4c; fill-opacity: 0.3"/>
   </g>
   <g id="patch_80">
    <path d="M 313.736293 307.584 
L 315.529965 307.584 
L 315.529965 247.126416 
L 313.736293 247.126416 
z
" clip-path="url(#pbbc30916c4)" style="fill: #4c4c4c; fill-opacity: 0.3"/>
   </g>
   <g id="patch_81">
    <path d="M 315.978383 307.584 
L 317.772054 307.584 
L 317.772054 245.559366 
L 315.978383 245.559366 
z
" clip-path="url(#pbbc30916c4)" style="fill: #4c4c4c; fill-opacity: 0.3"/>
   </g>
   <g id="patch_82">
    <path d="M 318.220472 307.584 
L 320.014144 307.584 
L 320.014144 220.585191 
L 318.220472 220.585191 
z
" clip-path="url(#pbbc30916c4)" style="fill: #4c4c4c; fill-opacity: 0.3"/>
   </g>
   <g id="patch_83">
    <path d="M 324.94674 307.584 
L 326.740412 307.584 
L 326.740412 211.440769 
L 324.94674 211.440769 
z
" clip-path="url(#pbbc30916c4)" style="fill: #4c4c4c; fill-opacity: 0.3"/>
   </g>
   <g id="patch_84">
    <path d="M 327.18883 307.584 
L 328.982501 307.584 
L 328.982501 211.26627 
L 327.18883 211.26627 
z
" clip-path="url(#pbbc30916c4)" style="fill: #4c4c4c; fill-opacity: 0.3"/>
   </g>
   <g id="patch_85">
    <path d="M 329.430919 307.584 
L 331.224591 307.584 
L 331.224591 178.98951 
L 329.430919 178.98951 
z
" clip-path="url(#pbbc30916c4)" style="fill: #4c4c4c; fill-opacity: 0.3"/>
   </g>
   <g id="patch_86">
    <path d="M 331.673009 307.584 
L 333.46668 307.584 
L 333.46668 232.336985 
L 331.673009 232.336985 
z
" clip-path="url(#pbbc30916c4)" style="fill: #4c4c4c; fill-opacity: 0.3"/>
   </g>
   <g id="patch_87">
    <path d="M 333.915098 307.584 
L 335.708769 307.584 
L 335.708769 189.089071 
L 333.915098 189.089071 
z
" clip-path="url(#pbbc30916c4)" style="fill: #4c4c4c; fill-opacity: 0.3"/>
   </g>
   <g id="patch_88">
    <path d="M 340.641366 307.584 
L 342.435038 307.584 
L 342.435038 204.289363 
L 340.641366 204.289363 
z
" clip-path="url(#pbbc30916c4)" style="fill: #4c4c4c; fill-opacity: 0.3"/>
   </g>
   <g id="patch_89">
    <path d="M 342.883456 307.584 
L 344.677127 307.584 
L 344.677127 226.475254 
L 342.883456 226.475254 
z
" clip-path="url(#pbbc30916c4)" style="fill: #4c4c4c; fill-opacity: 0.3"/>
   </g>
   <g id="patch_90">
    <path d="M 345.125545 307.584 
L 346.919216 307.584 
L 346.919216 237.0369 
L 345.125545 237.0369 
z
" clip-path="url(#pbbc30916c4)" style="fill: #4c4c4c; fill-opacity: 0.3"/>
   </g>
   <g id="patch_91">
    <path d="M 347.367634 307.584 
L 349.161306 307.584 
L 349.161306 244.993217 
L 347.367634 244.993217 
z
" clip-path="url(#pbbc30916c4)" style="fill: #4c4c4c; fill-opacity: 0.3"/>
   </g>
   <g id="patch_92">
    <path d="M 349.609724 307.584 
L 351.403395 307.584 
L 351.403395 237.715401 
L 349.609724 237.715401 
z
" clip-path="url(#pbbc30916c4)" style="fill: #4c4c4c; fill-opacity: 0.3"/>
   </g>
   <g id="patch_93">
    <path d="M 356.335992 307.584 
L 358.129663 307.584 
L 358.129663 242.663956 
L 356.335992 242.663956 
z
" clip-path="url(#pbbc30916c4)" style="fill: #4c4c4c; fill-opacity: 0.3"/>
   </g>
   <g id="patch_94">
    <path d="M 358.578081 307.584 
L 360.371753 307.584 
L 360.371753 251.584696 
L 358.578081 251.584696 
z
" clip-path="url(#pbbc30916c4)" style="fill: #4c4c4c; fill-opacity: 0.3"/>
   </g>
   <g id="patch_95">
    <path d="M 360.820171 307.584 
L 362.613842 307.584 
L 362.613842 240.062734 
L 360.820171 240.062734 
z
" clip-path="url(#pbbc30916c4)" style="fill: #4c4c4c; fill-opacity: 0.3"/>
   </g>
   <g id="patch_96">
    <path d="M 363.06226 307.584 
L 364.855932 307.584 
L 364.855932 251.332708 
L 363.06226 251.332708 
z
" clip-path="url(#pbbc30916c4)" style="fill: #4c4c4c; fill-opacity: 0.3"/>
   </g>
   <g id="patch_97">
    <path d="M 365.30435 307.584 
L 367.098021 307.584 
L 367.098021 260.02072 
L 365.30435 260.02072 
z
" clip-path="url(#pbbc30916c4)" style="fill: #4c4c4c; fill-opacity: 0.3"/>
   </g>
   <g id="patch_98">
    <path d="M 374.272707 307.584 
L 376.066379 307.584 
L 376.066379 216.889621 
L 374.272707 216.889621 
z
" clip-path="url(#pbbc30916c4)" style="fill: #4c4c4c; fill-opacity: 0.3"/>
   </g>
   <g id="patch_99">
    <path d="M 376.514797 307.584 
L 378.308468 307.584 
L 378.308468 251.786054 
L 376.514797 251.786054 
z
" clip-path="url(#pbbc30916c4)" style="fill: #4c4c4c; fill-opacity: 0.3"/>
   </g>
   <g id="patch_100">
    <path d="M 378.756886 307.584 
L 380.550558 307.584 
L 380.550558 247.878344 
L 378.756886 247.878344 
z
" clip-path="url(#pbbc30916c4)" style="fill: #4c4c4c; fill-opacity: 0.3"/>
   </g>
   <g id="patch_101">
    <path d="M 380.998975 307.584 
L 382.792647 307.584 
L 382.792647 230.578195 
L 380.998975 230.578195 
z
" clip-path="url(#pbbc30916c4)" style="fill: #4c4c4c; fill-opacity: 0.3"/>
   </g>
   <g id="patch_102">
    <path d="M 387.725244 307.584 
L 389.518915 307.584 
L 389.518915 175.667422 
L 387.725244 175.667422 
z
" clip-path="url(#pbbc30916c4)" style="fill: #4c4c4c; fill-opacity: 0.3"/>
   </g>
   <g id="patch_103">
    <path d="M 389.967333 307.584 
L 391.761005 307.584 
L 391.761005 170.633992 
L 389.967333 170.633992 
z
" clip-path="url(#pbbc30916c4)" style="fill: #4c4c4c; fill-opacity: 0.3"/>
   </g>
   <g id="patch_104">
    <path d="M 392.209422 307.584 
L 394.003094 307.584 
L 394.003094 189.608365 
L 392.209422 189.608365 
z
" clip-path="url(#pbbc30916c4)" style="fill: #4c4c4c; fill-opacity: 0.3"/>
   </g>
   <g id="patch_105">
    <path d="M 394.451512 307.584 
L 396.245183 307.584 
L 396.245183 117.241634 
L 394.451512 117.241634 
z
" clip-path="url(#pbbc30916c4)" style="fill: #4c4c4c; fill-opacity: 0.3"/>
   </g>
   <g id="patch_106">
    <path d="M 396.693601 307.584 
L 398.487273 307.584 
L 398.487273 54.144 
L 396.693601 54.144 
z
" clip-path="url(#pbbc30916c4)" style="fill: #4c4c4c; fill-opacity: 0.3"/>
   </g>
   <g id="matplotlib.axis_3">
    <g id="ytick_7">
     <g id="line2d_8">
      <defs>
       <path id="m4c69c3332c" d="M 0 0 
L 3.5 0 
" style="stroke: #000000; stroke-width: 0.8"/>
      </defs>
      <g>
       <use xlink:href="#m4c69c3332c" x="414.72" y="307.584" style="stroke: #000000; stroke-width: 0.8"/>
      </g>
     </g>
     <g id="text_10">
      <!-- 0.0 -->
      <g style="fill: #008000" transform="translate(421.72 311.383219) scale(0.1 -0.1)">
       <defs>
        <path id="DejaVuSans-2e" d="M 684 794 
L 1344 794 
L 1344 0 
L 684 0 
L 684 794 
z
" transform="scale(0.015625)"/>
       </defs>
       <use xlink:href="#DejaVuSans-30"/>
       <use xlink:href="#DejaVuSans-2e" x="63.623047"/>
       <use xlink:href="#DejaVuSans-30" x="95.410156"/>
      </g>
     </g>
    </g>
    <g id="ytick_8">
     <g id="line2d_9">
      <g>
       <use xlink:href="#m4c69c3332c" x="414.72" y="260.088282" style="stroke: #000000; stroke-width: 0.8"/>
      </g>
     </g>
     <g id="text_11">
      <!-- 0.2 -->
      <g style="fill: #008000" transform="translate(421.72 263.887501) scale(0.1 -0.1)">
       <use xlink:href="#DejaVuSans-30"/>
       <use xlink:href="#DejaVuSans-2e" x="63.623047"/>
       <use xlink:href="#DejaVuSans-32" x="95.410156"/>
      </g>
     </g>
    </g>
    <g id="ytick_9">
     <g id="line2d_10">
      <g>
       <use xlink:href="#m4c69c3332c" x="414.72" y="212.592564" style="stroke: #000000; stroke-width: 0.8"/>
      </g>
     </g>
     <g id="text_12">
      <!-- 0.4 -->
      <g style="fill: #008000" transform="translate(421.72 216.391783) scale(0.1 -0.1)">
       <use xlink:href="#DejaVuSans-30"/>
       <use xlink:href="#DejaVuSans-2e" x="63.623047"/>
       <use xlink:href="#DejaVuSans-34" x="95.410156"/>
      </g>
     </g>
    </g>
    <g id="ytick_10">
     <g id="line2d_11">
      <g>
       <use xlink:href="#m4c69c3332c" x="414.72" y="165.096847" style="stroke: #000000; stroke-width: 0.8"/>
      </g>
     </g>
     <g id="text_13">
      <!-- 0.6 -->
      <g style="fill: #008000" transform="translate(421.72 168.896065) scale(0.1 -0.1)">
       <use xlink:href="#DejaVuSans-30"/>
       <use xlink:href="#DejaVuSans-2e" x="63.623047"/>
       <use xlink:href="#DejaVuSans-36" x="95.410156"/>
      </g>
     </g>
    </g>
    <g id="ytick_11">
     <g id="line2d_12">
      <g>
       <use xlink:href="#m4c69c3332c" x="414.72" y="117.601129" style="stroke: #000000; stroke-width: 0.8"/>
      </g>
     </g>
     <g id="text_14">
      <!-- 0.8 -->
      <g style="fill: #008000" transform="translate(421.72 121.400347) scale(0.1 -0.1)">
       <use xlink:href="#DejaVuSans-30"/>
       <use xlink:href="#DejaVuSans-2e" x="63.623047"/>
       <use xlink:href="#DejaVuSans-38" x="95.410156"/>
      </g>
     </g>
    </g>
    <g id="ytick_12">
     <g id="line2d_13">
      <g>
       <use xlink:href="#m4c69c3332c" x="414.72" y="70.105411" style="stroke: #000000; stroke-width: 0.8"/>
      </g>
     </g>
     <g id="text_15">
      <!-- 1.0 -->
      <g style="fill: #008000" transform="translate(421.72 73.90463) scale(0.1 -0.1)">
       <defs>
        <path id="DejaVuSans-31" d="M 794 531 
L 1825 531 
L 1825 4091 
L 703 3866 
L 703 4441 
L 1819 4666 
L 2450 4666 
L 2450 531 
L 3481 531 
L 3481 0 
L 794 0 
L 794 531 
z
" transform="scale(0.015625)"/>
       </defs>
       <use xlink:href="#DejaVuSans-31"/>
       <use xlink:href="#DejaVuSans-2e" x="63.623047"/>
       <use xlink:href="#DejaVuSans-30" x="95.410156"/>
      </g>
     </g>
    </g>
    <g id="text_16">
     <!-- Volume -->
     <g style="fill: #4c4c4c; opacity: 0.3" transform="translate(449.221563 193.124875) rotate(-90) scale(0.1 -0.1)">
      <defs>
       <path id="DejaVuSans-56" d="M 1831 0 
L 50 4666 
L 709 4666 
L 2188 738 
L 3669 4666 
L 4325 4666 
L 2547 0 
L 1831 0 
z
" transform="scale(0.015625)"/>
       <path id="DejaVuSans-6c" d="M 603 4863 
L 1178 4863 
L 1178 0 
L 603 0 
L 603 4863 
z
" transform="scale(0.015625)"/>
       <path id="DejaVuSans-75" d="M 544 1381 
L 544 3500 
L 1119 3500 
L 1119 1403 
Q 1119 906 1312 657 
Q 1506 409 1894 409 
Q 2359 409 2629 706 
Q 2900 1003 2900 1516 
L 2900 3500 
L 3475 3500 
L 3475 0 
L 2900 0 
L 2900 538 
Q 2691 219 2414 64 
Q 2138 -91 1772 -91 
Q 1169 -91 856 284 
Q 544 659 544 1381 
z
M 1991 3584 
L 1991 3584 
z
" transform="scale(0.015625)"/>
       <path id="DejaVuSans-6d" d="M 3328 2828 
Q 3544 3216 3844 3400 
Q 4144 3584 4550 3584 
Q 5097 3584 5394 3201 
Q 5691 2819 5691 2113 
L 5691 0 
L 5113 0 
L 5113 2094 
Q 5113 2597 4934 2840 
Q 4756 3084 4391 3084 
Q 3944 3084 3684 2787 
Q 3425 2491 3425 1978 
L 3425 0 
L 2847 0 
L 2847 2094 
Q 2847 2600 2669 2842 
Q 2491 3084 2119 3084 
Q 1678 3084 1418 2786 
Q 1159 2488 1159 1978 
L 1159 0 
L 581 0 
L 581 3500 
L 1159 3500 
L 1159 2956 
Q 1356 3278 1631 3431 
Q 1906 3584 2284 3584 
Q 2666 3584 2933 3390 
Q 3200 3197 3328 2828 
z
" transform="scale(0.015625)"/>
      </defs>
      <use xlink:href="#DejaVuSans-56"/>
      <use xlink:href="#DejaVuSans-6f" x="60.658203"/>
      <use xlink:href="#DejaVuSans-6c" x="121.839844"/>
      <use xlink:href="#DejaVuSans-75" x="149.623047"/>
      <use xlink:href="#DejaVuSans-6d" x="213.001953"/>
      <use xlink:href="#DejaVuSans-65" x="310.414062"/>
     </g>
    </g>
    <g id="text_17">
     <!-- 1e8 -->
     <g style="fill: #008000" transform="translate(395.841875 38.472) scale(0.1 -0.1)">
      <use xlink:href="#DejaVuSans-31"/>
      <use xlink:href="#DejaVuSans-65" x="63.623047"/>
      <use xlink:href="#DejaVuSans-38" x="125.146484"/>
     </g>
    </g>
   </g>
   <g id="patch_107">
    <path d="M 57.6 307.584 
L 57.6 41.472 
" style="fill: none; stroke: #000000; stroke-width: 0.8; stroke-linejoin: miter; stroke-linecap: square"/>
   </g>
   <g id="patch_108">
    <path d="M 414.72 307.584 
L 414.72 41.472 
" style="fill: none; stroke: #000000; stroke-width: 0.8; stroke-linejoin: miter; stroke-linecap: square"/>
   </g>
   <g id="patch_109">
    <path d="M 57.6 307.584 
L 414.72 307.584 
" style="fill: none; stroke: #000000; stroke-width: 0.8; stroke-linejoin: miter; stroke-linecap: square"/>
   </g>
   <g id="patch_110">
    <path d="M 57.6 41.472 
L 414.72 41.472 
" style="fill: none; stroke: #000000; stroke-width: 0.8; stroke-linejoin: miter; stroke-linecap: square"/>
   </g>
  </g>
 </g>
 <defs>
  <clipPath id="pbbc30916c4">
   <rect x="57.6" y="41.472" width="357.12" height="266.112"/>
  </clipPath>
 </defs>
</svg>
